# xmcd CD database file
#
# Track frame offsets:
#	150
#	23899
#	29527
#	43388
#	50332
#	58009
#	60003
#	71358
#	75259
#	89190
#	92309
#	108731
#	111152
#	127521
#
# Disc length: 1827 seconds
#
# Revision: 1
# Processed by: cddbd v1.5.1PL0 Copyright (c) Steve Scherf et al.
# Submitted via: CDex 1.50beta10
#
DISCID=ad07210e
DTITLE=Children X-mas Songs - Stranger in the Manger
DYEAR=1900
DGENRE=Salsa
TTITLE0=Tell Me the Story of Christmas
TTITLE1=Dialogue
TTITLE2=The Answer is YES
TTITLE3=Dialogue
TTITLE4=Angels we Have Heard on High
TTITLE5=Dialogue
TTITLE6=Stranger in the Manger
TTITLE7=Dialogue
TTITLE8=Walkin Like a Wise Man
TTITLE9=Dialogue
TTITLE10=Strange Way to Save the World
TTITLE11=Dialogue
TTITLE12=Whe I Think of Christmas
TTITLE13=Finale (Stranger in the Manger Reprise with Joy to the World)
EXTD=
EXTT0=
EXTT1=
EXTT2=
EXTT3=
EXTT4=
EXTT5=
EXTT6=
EXTT7=
EXTT8=
EXTT9=
EXTT10=
EXTT11=
EXTT12=
EXTT13=
PLAYORDER=
